<?xml version="1.0" standalone="no"?>
<!DOCTYPE svg PUBLIC "-//W3C//DTD SVG 20010904//EN"
 "http://www.w3.org/TR/2001/REC-SVG-20010904/DTD/svg10.dtd">
<svg version="1.0" xmlns="http://www.w3.org/2000/svg"
 width="514.000000pt" height="514.000000pt" viewBox="0 0 514.000000 514.000000"
 preserveAspectRatio="xMidYMid meet">
<metadata>
Created by potrace 1.14, written by Peter Selinger 2001-2017
</metadata>
<g transform="translate(0.000000,514.000000) scale(0.100000,-0.100000)"
fill="#000000" stroke="none">
<path d="M49 3890 c-20 -4 -25 -11 -24 -35 l0 -30 83 -1 c46 -1 87 -5 92 -10
8 -9 45 -109 441 -1199 110 -302 224 -615 254 -695 138 -378 242 -663 250
-687 3 -10 46 -13 170 -13 91 0 165 1 165 3 0 2 34 123 76 268 42 145 113 395
159 554 46 160 114 394 150 520 37 127 75 259 84 295 l18 65 62 -190 c158
-483 385 -1177 437 -1337 l58 -178 167 0 167 0 11 33 c6 17 24 84 40 147 16
63 32 122 35 130 3 8 8 26 10 40 3 14 23 93 46 175 22 83 68 254 101 380 34
127 77 287 96 357 18 70 36 135 38 145 5 24 92 348 105 393 5 19 37 136 69
260 104 393 142 535 147 539 2 2 57 4 123 3 l119 -1 4 30 c3 16 0 33 -5 36 -7
4 -638 8 -729 4 -14 -1 -18 -10 -18 -35 l0 -34 173 -1 c94 0 179 0 189 0 14
-1 3 -53 -72 -348 -48 -192 -147 -582 -219 -868 -72 -286 -135 -528 -139 -539
-8 -18 -23 21 -82 219 -10 33 -37 119 -60 190 -23 72 -48 150 -55 175 -7 25
-41 133 -75 240 -35 107 -73 229 -86 270 -12 41 -38 125 -58 185 -110 350
-146 468 -141 473 3 3 51 5 108 5 l103 -1 2 34 c2 22 -2 34 -10 35 -18 0
-1108 1 -1135 0 -19 -1 -23 -7 -23 -34 l0 -34 105 0 c58 0 107 -2 109 -4 2 -2
24 -69 49 -149 25 -80 75 -240 112 -356 l66 -212 -152 -528 c-83 -291 -154
-532 -158 -536 -4 -4 -25 47 -48 115 -23 67 -98 289 -168 492 -69 204 -151
444 -181 535 -30 91 -59 174 -64 185 -26 63 -151 448 -146 453 4 3 62 5 131 5
l125 -1 0 34 c0 30 -3 34 -27 35 -158 3 -1155 3 -1174 -1z"/>
<path d="M4264 3841 c-13 -13 0 -21 35 -21 l38 0 0 -505 c0 -483 -1 -505 -19
-506 -10 -1 -22 -3 -28 -4 -5 -1 -14 -3 -20 -4 -5 0 -10 -6 -10 -11 0 -7 56
-10 162 -8 l161 3 4 30 c6 40 8 41 28 7 22 -36 72 -55 144 -53 100 2 163 25
213 78 26 27 74 123 61 123 -3 0 -1 6 4 13 6 6 10 62 11 123 2 198 -51 308
-167 349 -93 32 -181 14 -240 -50 l-39 -42 0 234 c0 129 -3 237 -7 241 -7 7
-323 10 -331 3z m477 -444 c26 -20 32 -63 34 -247 4 -267 -13 -340 -79 -340
-43 0 -81 42 -90 97 -10 65 -4 376 8 411 24 70 87 110 127 79z"/>
<path d="M3784 3457 c-28 -8 -72 -26 -97 -41 -45 -26 -118 -103 -123 -128 -1
-7 -9 -31 -17 -53 -16 -45 -16 -190 0 -240 50 -151 161 -226 336 -227 125 -1
196 22 253 84 35 36 64 88 64 113 0 26 -17 17 -31 -17 -48 -117 -181 -172
-280 -116 -56 31 -84 118 -84 258 l0 55 185 2 c102 0 193 2 202 2 14 1 16 9
12 57 -16 171 -104 253 -282 260 -51 2 -108 -2 -138 -9z m145 -31 c19 -23 34
-207 20 -237 -6 -12 -24 -16 -74 -17 -74 -1 -69 -9 -66 107 3 122 21 161 75
161 18 0 39 -6 45 -14z"/>
<path d="M1919 1974 c-121 -36 -181 -191 -118 -304 27 -48 72 -76 174 -111
119 -39 160 -64 171 -103 13 -42 7 -70 -21 -100 -26 -28 -79 -41 -130 -32 -48
9 -125 74 -173 145 -22 34 -43 58 -45 54 -2 -5 -3 -37 -1 -73 1 -36 3 -85 3
-109 1 -43 2 -44 20 -27 18 16 25 17 93 3 79 -17 188 -16 229 0 143 60 179
283 60 371 -18 13 -82 39 -144 59 -150 49 -185 84 -157 157 18 48 86 73 150
56 42 -11 98 -63 143 -133 l32 -50 3 93 c3 95 0 112 -19 93 -8 -8 -26 -7 -63
3 -77 20 -155 23 -207 8z"/>
<path d="M4127 1928 c-7 -4 2 -8 19 -8 l31 0 1 -126 c2 -123 1 -126 -17 -110
-24 22 -97 27 -146 10 -71 -24 -98 -75 -101 -194 -1 -70 2 -94 20 -130 25 -52
58 -78 108 -86 48 -8 80 0 117 32 l31 26 0 -26 0 -26 94 0 c52 0 97 4 100 9 4
5 -5 8 -18 7 l-25 -3 0 136 c0 75 0 217 -1 316 l0 180 -101 0 c-55 0 -106 -3
-112 -7z m39 -273 c23 -36 23 -275 -1 -311 -20 -31 -60 -32 -77 -1 -16 30 -16
284 0 315 17 30 57 29 78 -3z"/>
<path d="M4477 1899 c-23 -21 -32 -48 -28 -85 3 -27 43 -54 80 -54 49 0 80 25
87 70 8 48 -18 80 -72 87 -33 4 -45 1 -67 -18z"/>
<path d="M3190 1828 c-19 -5 -51 -13 -70 -18 l-36 -10 4 -55 c3 -54 3 -55 -25
-55 -20 0 -24 -3 -14 -9 8 -5 20 -7 27 -4 9 3 13 -30 13 -145 1 -82 3 -158 6
-169 10 -53 49 -82 115 -85 68 -2 89 2 117 26 28 23 60 96 43 96 -4 0 -11 -11
-14 -25 -14 -56 -68 -84 -95 -51 -13 15 -19 324 -8 343 3 5 27 11 53 12 68 2
68 11 1 11 -63 0 -58 -9 -61 94 -1 55 -6 58 -56 44z"/>
<path d="M4820 1694 c-90 -29 -134 -97 -133 -205 1 -124 69 -195 194 -203 107
-7 180 28 219 103 18 35 21 159 5 206 -19 54 -62 91 -124 104 -67 14 -105 13
-161 -5z m121 -26 c18 -33 18 -315 0 -346 -17 -31 -61 -27 -78 8 -17 31 -16
316 1 342 16 26 63 23 77 -4z"/>
<path d="M3380 1688 c0 -5 10 -8 23 -8 22 0 22 -2 23 -148 1 -165 3 -178 26
-210 38 -55 160 -59 206 -7 12 15 22 25 23 23 0 -2 2 -11 4 -21 2 -11 6 -21 8
-24 6 -5 132 -7 177 -3 24 2 23 3 -5 9 l-29 6 -1 193 c0 121 -4 193 -10 193
-35 5 -185 3 -185 -3 0 -3 8 -8 18 -10 15 -3 17 -19 19 -143 1 -150 -6 -193
-36 -212 -14 -9 -23 -9 -38 2 -18 13 -19 27 -20 191 l-1 178 -101 0 c-55 1
-101 -2 -101 -6z"/>
<path d="M4405 1691 c3 -6 14 -8 25 -6 23 4 21 18 24 -205 2 -163 0 -181 -19
-174 -7 3 -16 1 -20 -5 -4 -8 33 -11 119 -11 77 0 126 4 126 10 0 6 -3 9 -7 9
-40 -6 -41 -4 -41 159 -1 86 -1 174 -1 195 l-1 37 -106 0 c-63 0 -103 -4 -99
-9z"/>
</g>
</svg>
